<svg width="18" height="18" viewBox="0 0 18 18" fill="none" xmlns="http://www.w3.org/2000/svg">
<path fill-rule="evenodd" clip-rule="evenodd" d="M2.33317 12.3333V14C2.33317 15.8417 3.82567 17.3333 5.6665 17.3333H13.9998C15.8415 17.3333 17.3332 15.8417 17.3332 14C17.3332 11.2258 17.3332 6.77499 17.3332 3.99999C17.3332 2.15916 15.8415 0.666656 13.9998 0.666656C11.6173 0.666656 8.04984 0.666656 5.6665 0.666656C3.82567 0.666656 2.33317 2.15916 2.33317 3.99999V5.66666C2.33317 6.12666 2.7065 6.49999 3.1665 6.49999C3.6265 6.49999 3.99984 6.12666 3.99984 5.66666C3.99984 5.66666 3.99984 4.88582 3.99984 3.99999C3.99984 3.07999 4.7465 2.33332 5.6665 2.33332H13.9998C14.9207 2.33332 15.6665 3.07999 15.6665 3.99999V14C15.6665 14.9208 14.9207 15.6667 13.9998 15.6667C11.6173 15.6667 8.04984 15.6667 5.6665 15.6667C4.7465 15.6667 3.99984 14.9208 3.99984 14C3.99984 13.115 3.99984 12.3333 3.99984 12.3333C3.99984 11.8742 3.6265 11.5 3.1665 11.5C2.7065 11.5 2.33317 11.8742 2.33317 12.3333ZM8.65484 8.16666L7.57734 7.08998C7.25234 6.76415 7.25234 6.23666 7.57734 5.91082C7.90317 5.58582 8.43067 5.58582 8.75567 5.91082L11.2557 8.41082C11.5815 8.73666 11.5815 9.26415 11.2557 9.58998L8.75567 12.09C8.43067 12.415 7.90317 12.415 7.57734 12.09C7.25234 11.7642 7.25234 11.2367 7.57734 10.9108L8.65484 9.83332H1.49984C1.03984 9.83332 0.666504 9.45999 0.666504 8.99999C0.666504 8.54082 1.03984 8.16666 1.49984 8.16666H8.65484Z" fill="#84BE51"/>
</svg>
