<svg width="20" height="24" viewBox="0 0 20 24" fill="none" xmlns="http://www.w3.org/2000/svg">
<path d="M1.60001 18H1.20001C0.979114 18 0.800013 18.1791 0.800013 18.4V22.4C0.800013 22.6209 0.979114 22.8 1.20001 22.8H1.60001V24H2.40001V22.8H3.20001V24H4.00001V23.9725C4.77404 23.8742 5.48537 23.4961 6.00001 22.9096V24H6.80001V16.8H15.6V24H16.4V21.2H18.4V24H19.2V21.2H19.6C19.8209 21.2 20 21.0209 20 20.8V19.2C20 18.9791 19.8209 18.8 19.6 18.8H19.2V15.2C19.1981 13.4336 17.7664 12.002 16 12H14V11.6488C14.6664 10.9949 15.0834 10.1287 15.1789 9.2H15.2C15.9072 9.19746 16.5287 8.73008 16.7272 8.05117C17.4512 7.55645 17.7684 6.64785 17.5098 5.80996C17.251 4.97227 16.4768 4.40059 15.6 4.4H15.2V2.5916C15.2 1.51152 14.8721 0.767189 14.1965 0.316798C13.8865 0.109767 13.5223 -0.00038959 13.1496 1.0353e-06H12.8504C12.4778 -0.00038959 12.1135 0.109767 11.8035 0.316798C11.4383 0.561134 10.9617 0.561134 10.5965 0.316798C10.2865 0.109767 9.92228 -0.00038959 9.54962 1.0353e-06H9.25041C8.87775 -0.00038959 8.51349 0.109767 8.20353 0.316798C7.52794 0.767189 7.20001 1.51113 7.20001 2.5916V4.4H6.80001C6.36583 4.40156 5.94415 4.54571 5.60001 4.81035V2.33047C5.59826 1.71172 5.84415 1.11797 6.28283 0.681642L5.7172 0.117189C5.12794 0.703126 4.79767 1.50059 4.80001 2.33164V5.6C4.79787 6.10664 4.47775 6.55742 4.00001 6.72637V2.33164C3.99826 1.71289 4.24415 1.11914 4.68283 0.682814L4.1172 0.117189C3.52794 0.703126 3.19767 1.50059 3.20001 2.33164V6.8H2.40001V2.33164C2.39826 1.71289 2.64415 1.11914 3.08283 0.682814L2.5172 0.117189C1.92794 0.703126 1.59767 1.50059 1.60001 2.33164V6.72637C1.12228 6.55742 0.802161 6.10664 0.800013 5.6V2.33164C0.798255 1.71289 1.04415 1.11914 1.48283 0.682814L0.9172 0.117189C0.327942 0.703126 -0.00233136 1.50059 1.23895e-05 2.33164V5.6C0.00118426 6.55 0.669544 7.36856 1.60001 7.55996V18ZM2.40001 9.2H3.20001V18H2.40001V9.2ZM4.80001 19.6H6.00001V20.4H4.80001V19.6ZM6.00001 16.4V18.8H4.72638C4.60548 18.4611 4.33888 18.1945 4.00001 18.0736V15.2C4.00216 14.0301 4.84669 13.032 6.00001 12.8359V16.4ZM2.00001 22H1.60001V18.8H3.60001C3.82091 18.8 4.00001 18.9791 4.00001 19.2V21.6C4.00001 21.8209 3.82091 22 3.60001 22H2.00001ZM4.00001 23.1637V22.7264C4.47775 22.5574 4.79787 22.1066 4.80001 21.6V21.2H5.96681C5.79435 22.2057 5.00587 22.9928 4.00001 23.1637ZM6.80001 16V12.8H7.60001V16H6.80001ZM8.51994 12.8C8.67169 13.3051 8.96291 13.757 9.35998 14.1039L10.4944 16H8.40001V12.8H8.51994ZM11.2 14C10.0959 13.9986 9.20138 13.1041 9.20002 12V10.4C9.20002 9.29551 10.0955 8.4 11.2 8.4C12.3045 8.4 13.2 9.29551 13.2 10.4V12C13.1986 13.1041 12.3041 13.9986 11.2 14ZM11.7129 14.7508L11.2 15.6188L10.6801 14.7492C10.8514 14.7824 11.0254 14.7994 11.2 14.8C11.3721 14.7992 11.5438 14.7828 11.7129 14.7508ZM19.2 20.4H16.4V19.6H19.2V20.4ZM18.4 15.2V18.8H16.4V12.8359C17.5533 13.032 18.3979 14.0301 18.4 15.2ZM15.6 12.8V16H14.8V12.8H15.6ZM14 12.8V16H11.9024L13.0092 14.1332C13.4229 13.7826 13.7262 13.3195 13.882 12.8H14ZM13.9973 10.3477C13.9715 8.8211 12.7266 7.59727 11.2 7.59727C9.67345 7.59727 8.42873 8.8211 8.40275 10.3477C8.13966 9.87422 8.00119 9.3416 8.00001 8.8V5.2H14.4V8.8C14.3988 9.3416 14.2604 9.87422 13.9973 10.3477ZM15.2 8.4V6.8C15.6418 6.8 16 7.15821 16 7.6C16 8.0418 15.6418 8.4 15.2 8.4ZM15.6 5.2C16.0197 5.2002 16.4088 5.41973 16.626 5.77891C16.8432 6.13809 16.857 6.58457 16.6625 6.95645C16.4074 6.37598 15.834 6.00098 15.2 6V5.2H15.6ZM8.64728 0.982814C8.8258 0.863478 9.03576 0.799806 9.25041 0.800001H9.54962C9.76447 0.799806 9.97443 0.863478 10.1528 0.982814C10.7867 1.40664 11.6135 1.40664 12.2473 0.982814C12.4258 0.863478 12.6358 0.799806 12.8504 0.800001H13.1496C13.3645 0.799806 13.5744 0.863478 13.7528 0.982814C14.0305 1.16758 14.4 1.53594 14.4 2.5916V2.8H8.00001V2.5916C8.00001 1.53594 8.36955 1.16758 8.64728 0.982814ZM8.00001 3.6H14.4V4.4H8.00001V3.6ZM6.80001 5.2H7.20001V6C6.56857 6.00117 5.99708 6.37364 5.74083 6.95078C5.54259 6.58047 5.55451 6.13321 5.77189 5.77383C5.98927 5.41446 6.38009 5.19629 6.80001 5.2ZM6.40001 7.6C6.40001 7.15821 6.75822 6.8 7.20001 6.8V8.4C6.75822 8.4 6.40001 8.0418 6.40001 7.6ZM4.92599 7.08555C5.06915 7.475 5.32951 7.81035 5.6713 8.04551C5.86759 8.72735 6.49044 9.19766 7.20001 9.2H7.2213C7.31662 10.1287 7.73361 10.9949 8.40001 11.6488V12H6.40001C5.48029 12.0006 4.60548 12.3981 4.00001 13.0904V7.55996C4.34533 7.48692 4.66505 7.32324 4.92599 7.08555ZM3.20001 8.4H2.40001V7.6H3.20001V8.4Z" fill="#84BE51"/>
</svg>
