<svg width="24" height="24" viewBox="0 0 24 24" fill="none" xmlns="http://www.w3.org/2000/svg">
<path d="M18.6442 21.1183H18.5442C18.5442 21.2319 18.5893 21.3408 18.6696 21.421C18.7499 21.5013 18.8588 21.5464 18.9723 21.5464C19.0859 21.5464 19.1948 21.5013 19.275 21.421C19.3553 21.3408 19.4004 21.2319 19.4004 21.1183L19.4004 21.1182C19.4 20.7117 19.2383 20.322 18.9509 20.0346C18.6635 19.7472 18.2738 19.5855 17.8673 19.5851H17.8672C17.7536 19.5851 17.6447 19.6302 17.5645 19.7105C17.4842 19.7907 17.4391 19.8996 17.4391 20.0132C17.4391 20.1267 17.4842 20.2356 17.5645 20.3159C17.6447 20.3962 17.7536 20.4413 17.8672 20.4413V20.3413M18.6442 21.1183L18.5442 21.1184C18.544 20.9389 18.4726 20.7668 18.3456 20.6399C18.2187 20.5129 18.0466 20.4415 17.8671 20.4413L17.8672 20.3413M18.6442 21.1183C18.6439 20.9123 18.562 20.7148 18.4163 20.5692C18.2707 20.4235 18.0732 20.3416 17.8672 20.3413M18.6442 21.1183C18.6442 21.2053 18.6788 21.2888 18.7403 21.3503C18.8018 21.4119 18.8853 21.4464 18.9723 21.4464C19.0593 21.4464 19.1428 21.4119 19.2043 21.3503C19.2659 21.2888 19.3004 21.2053 19.3004 21.1183C19.3 20.7383 19.1488 20.374 18.8802 20.1053C18.6115 19.8367 18.2472 19.6855 17.8672 19.6851C17.7802 19.6851 17.6967 19.7196 17.6352 19.7812C17.5736 19.8427 17.5391 19.9262 17.5391 20.0132C17.5391 20.1002 17.5736 20.1837 17.6352 20.2452C17.6967 20.3067 17.7802 20.3413 17.8672 20.3413" fill="#84BE51" stroke="#84BE51" stroke-width="0.2"/>
<path d="M15.9576 18.7979V18.8979C16.0712 18.8979 16.1801 18.8527 16.2604 18.7725C16.3407 18.6922 16.3858 18.5833 16.3858 18.4697C16.3858 18.3562 16.3407 18.2473 16.2604 18.167C16.1801 18.0867 16.0712 18.0416 15.9576 18.0416L15.9575 18.0416L15.166 19.5897L15.266 19.5898C15.266 19.5897 15.266 19.5897 15.266 19.5897C15.2662 19.4063 15.3391 19.2305 15.4688 19.1008C15.5985 18.971 15.7743 18.8981 15.9578 18.8979L15.9576 18.7979ZM15.9576 18.7979C16.0447 18.7979 16.1281 18.7633 16.1897 18.7017C16.2512 18.6402 16.2858 18.5568 16.2858 18.4697C16.2858 18.3827 16.2512 18.2992 16.1897 18.2377C16.1281 18.1762 16.0447 18.1416 15.9576 18.1416V18.7979Z" fill="#84BE51" stroke="#84BE51" stroke-width="0.2"/>
<path d="M12.1334 12.0266V12.0265C12.1334 11.9129 12.0883 11.804 12.008 11.7238C11.9277 11.6435 11.8188 11.5984 11.7053 11.5984L11.7052 11.5984C11.3244 11.5986 10.948 11.6798 10.6009 11.8366C10.3304 11.9588 10.0826 12.1247 9.8671 12.3271V12.0192C10.311 11.5109 10.5479 10.8538 10.5297 10.1782C10.5112 9.48974 10.2291 8.83465 9.74176 8.34803C9.66145 8.26781 9.55258 8.22275 9.43907 8.22275C9.32555 8.22275 9.21668 8.26782 9.13636 8.34805L9.13622 8.3482C8.65038 8.83557 8.36938 9.49031 8.3508 10.1782C8.33258 10.8533 8.56843 11.5101 9.01085 12.0191V12.327C8.79544 12.1245 8.54765 11.9586 8.27719 11.8365C7.93014 11.6797 7.55371 11.5985 7.1729 11.5984H7.17285C7.05931 11.5984 6.95041 11.6435 6.87012 11.7238C6.78983 11.804 6.74473 11.9129 6.74473 12.0265L6.74473 12.0266C6.74579 12.6816 6.98522 13.3138 7.4183 13.8051C7.83191 14.2744 8.39514 14.5845 9.01085 14.684V15.3494C9.01085 15.4629 9.05596 15.5718 9.13625 15.6521C9.21654 15.7324 9.32543 15.7775 9.43898 15.7775C9.55252 15.7775 9.66142 15.7324 9.74171 15.6521C9.822 15.5718 9.8671 15.4629 9.8671 15.3494V14.684C10.4828 14.5846 11.0461 14.2744 11.4598 13.8052C11.8929 13.3138 12.1323 12.6816 12.1334 12.0266ZM9.20704 8.41879C8.73923 8.88808 8.46865 9.51854 8.45077 10.1809C8.43288 10.8433 8.66905 11.4874 9.11085 11.9813L9.20704 8.41879ZM9.20399 10.2536C9.20396 9.93727 9.28532 9.62718 9.43905 9.35272C9.59317 9.62721 9.67477 9.9375 9.67477 10.254C9.67477 10.5704 9.59329 10.8804 9.43939 11.1548C9.2855 10.8802 9.20401 10.57 9.20399 10.2536ZM10.406 12.9937C10.6296 12.77 10.9063 12.6082 11.209 12.5228C11.1237 12.8255 10.962 13.1023 10.7385 13.326C10.5149 13.5497 10.2382 13.7114 9.93546 13.7968C10.0208 13.4941 10.1824 13.2173 10.406 12.9937ZM8.47205 12.9942C8.69557 13.2177 8.85721 13.4943 8.94261 13.7968C8.64007 13.7114 8.36349 13.5498 8.13997 13.3262C7.91645 13.1027 7.7548 12.8261 7.66941 12.5236C7.97195 12.609 8.24853 12.7706 8.47205 12.9942Z" fill="#84BE51" stroke="#84BE51" stroke-width="0.2"/>
<path d="M4.29258 12L4.29258 12.0001C4.29254 13.0183 4.59442 14.0135 5.16004 14.8601C5.72566 15.7067 6.52962 16.3665 7.47024 16.7561C8.41087 17.1458 9.44591 17.2477 10.4445 17.0491C11.4431 16.8505 12.3603 16.3602 13.0802 15.6403C13.8002 14.9204 14.2904 14.0031 14.4891 13.0045C14.6877 12.006 14.5857 10.9709 14.1961 10.0303C13.8064 9.08968 13.1466 8.28572 12.3 7.7201C11.4535 7.15448 10.4582 6.8526 9.44007 6.85264L9.43996 6.85264C8.07527 6.85421 6.76693 7.39702 5.80194 8.362C4.83696 9.32699 4.29415 10.6353 4.29258 12ZM9.44014 7.70889C10.2888 7.7089 11.1185 7.96058 11.8242 8.43209C12.5299 8.90362 13.0799 9.57382 13.4047 10.3579C13.7295 11.1421 13.8145 12.0049 13.6489 12.8373C13.4833 13.6697 13.0746 14.4344 12.4744 15.0345C11.8743 15.6347 11.1097 16.0434 10.2773 16.2089C9.44484 16.3745 8.58201 16.2895 7.79789 15.9647C7.01376 15.6399 6.34356 15.0899 5.87203 14.3842C5.40052 13.6786 5.14884 12.8489 5.14883 12.0002C5.15015 10.8625 5.60269 9.77174 6.40719 8.96724C7.21168 8.16275 8.30242 7.71021 9.44014 7.70889Z" fill="#84BE51" stroke="#84BE51" stroke-width="0.2"/>
<mask id="path-5-outside-1_91_3218" maskUnits="userSpaceOnUse" x="-0.145508" y="-0.145508" width="24" height="24" fill="black">
<rect fill="white" x="-0.145508" y="-0.145508" width="24" height="24"/>
<path d="M21.874 20.9813C21.8387 20.54 21.666 20.1209 21.3801 19.7828C21.0942 19.4448 20.7096 19.2049 20.2802 19.0969C20.2802 19.0804 20.2802 19.0639 20.2802 19.0476C20.2795 18.5183 20.0794 18.0087 19.7198 17.6204C19.3602 17.232 18.8675 16.9933 18.3398 16.9519C18.3229 16.8782 18.3023 16.8068 18.2779 16.7363C18.4828 15.1915 18.5921 13.6354 18.6053 12.0771V11.923C18.6053 7.98137 17.6783 3.51755 17.5887 3.09549V1.18262C17.5887 1.09559 17.5541 1.01213 17.4926 0.950598C17.431 0.889062 17.3476 0.854492 17.2606 0.854492H2.19924C2.15615 0.854468 2.11347 0.862938 2.07365 0.879419C2.03382 0.8959 1.99764 0.920069 1.96717 0.950543C1.93669 0.981017 1.91253 1.0172 1.89604 1.05702C1.87956 1.09684 1.87109 1.13952 1.87112 1.18262V3.09512C1.7813 3.51812 0.854492 7.98155 0.854492 11.923V12.0771C0.854492 16.0186 1.7813 20.482 1.87112 20.9046V22.8171C1.87109 22.8602 1.87956 22.9029 1.89604 22.9427C1.91253 22.9825 1.93669 23.0187 1.96717 23.0492C1.99764 23.0797 2.03382 23.1038 2.07365 23.1203C2.11347 23.1368 2.15615 23.1453 2.19924 23.1452H22.8175C22.8606 23.1453 22.9033 23.1368 22.9431 23.1203C22.9829 23.1038 23.0191 23.0797 23.0496 23.0492C23.08 23.0187 23.1042 22.9825 23.1207 22.9427C23.1372 22.9029 23.1456 22.8602 23.1456 22.8171C23.1475 22.4177 23.0265 22.0273 22.799 21.6989C22.5715 21.3705 22.2486 21.12 21.874 20.9813ZM2.52737 1.51074H16.9324V2.80205H2.52737V1.51074ZM1.51074 11.923C1.51074 8.41993 2.25793 4.4858 2.46699 3.4583H16.9934C17.2015 4.4858 17.9496 8.41993 17.9496 11.923V12.0771C17.9412 13.3365 17.8651 14.5946 17.7218 15.8459C17.4337 15.5634 17.0757 15.3626 16.6844 15.2642C16.2931 15.1658 15.8826 15.1733 15.4952 15.2859C15.1077 15.3985 14.7572 15.6122 14.4796 15.905C14.202 16.1978 14.0073 16.5592 13.9156 16.9521C13.3882 16.9941 12.896 17.2331 12.5369 17.6216C12.1778 18.01 11.978 18.5194 11.9774 19.0484C11.9774 19.0647 11.9774 19.0812 11.9774 19.0977C11.6223 19.1874 11.2965 19.3675 11.0318 19.6205C10.767 19.8736 10.5722 20.1908 10.4665 20.5414H2.46624C2.25793 19.5139 1.50999 15.5798 1.50999 12.0767L1.51074 11.923ZM2.52737 21.1981H9.96531C9.74722 21.346 9.56151 21.5368 9.41945 21.7588C9.2774 21.9808 9.18198 22.2293 9.13899 22.4894H2.52737V21.1981ZM13.4091 22.4894C13.4746 22.3249 13.5879 22.1839 13.7343 22.0845C13.8807 21.985 14.0536 21.9317 14.2306 21.9314C14.3176 21.9314 14.401 21.8968 14.4626 21.8353C14.5241 21.7737 14.5587 21.6903 14.5587 21.6032C14.5587 21.5162 14.5241 21.4328 14.4626 21.3712C14.401 21.3097 14.3176 21.2751 14.2306 21.2751C13.8787 21.2757 13.5376 21.3963 13.2637 21.6171C12.9897 21.8379 12.7994 22.1457 12.7242 22.4894H9.80856C9.86803 22.2576 9.99049 22.0469 10.1624 21.8804C10.3343 21.714 10.5489 21.5984 10.7824 21.5464C10.8577 21.5293 10.9245 21.4863 10.9712 21.4248C11.0179 21.3633 11.0414 21.2873 11.0376 21.2102L11.0354 21.1741C11.0354 21.1621 11.0335 21.1499 11.0335 21.1377C11.0352 20.7752 11.1724 20.4265 11.4182 20.16C11.6639 19.8936 12.0004 19.7287 12.3616 19.6977C12.4073 19.694 12.4518 19.6808 12.4921 19.6588C12.5324 19.6369 12.5677 19.6067 12.5956 19.5703C12.6236 19.5339 12.6436 19.492 12.6543 19.4474C12.665 19.4028 12.6663 19.3564 12.658 19.3112C12.6415 19.2247 12.633 19.1368 12.6327 19.0487C12.6331 18.6653 12.7856 18.2976 13.0568 18.0264C13.3279 17.7553 13.6956 17.6028 14.0791 17.6024C14.1012 17.6024 14.1229 17.6041 14.1447 17.6056L14.173 17.6074C14.258 17.6127 14.3417 17.5848 14.4065 17.5295C14.4712 17.4742 14.512 17.3959 14.5201 17.3112C14.5587 16.9117 14.7447 16.541 15.0418 16.2713C15.3389 16.0015 15.7258 15.8521 16.1271 15.8521C16.5284 15.8521 16.9153 16.0015 17.2124 16.2713C17.5095 16.541 17.6955 16.9117 17.7342 17.3112C17.7422 17.3962 17.783 17.4748 17.848 17.5301C17.9131 17.5854 17.9972 17.6132 18.0824 17.6074L18.1067 17.6057C18.1304 17.6041 18.154 17.6022 18.178 17.6022C18.3904 17.6013 18.6004 17.6474 18.793 17.7372C18.9855 17.827 19.1558 17.9583 19.2916 18.1217C19.4274 18.2851 19.5254 18.4764 19.5786 18.6821C19.6317 18.8878 19.6387 19.1027 19.5991 19.3114C19.5907 19.3566 19.592 19.4029 19.6027 19.4476C19.6134 19.4922 19.6334 19.5341 19.6613 19.5705C19.6892 19.6069 19.7245 19.6371 19.7648 19.659C19.8051 19.681 19.8496 19.6942 19.8953 19.6979C20.2565 19.7288 20.593 19.8938 20.8388 20.1602C21.0845 20.4267 21.2218 20.7754 21.2236 21.1379C21.2236 21.1499 21.2236 21.1615 21.2219 21.1733L21.2194 21.2108C21.2157 21.2879 21.2391 21.3638 21.2858 21.4253C21.3324 21.4868 21.3992 21.5299 21.4744 21.547C21.708 21.5989 21.9226 21.7145 22.0945 21.881C22.2664 22.0474 22.3889 22.2582 22.4483 22.4899L13.4091 22.4894Z"/>
</mask>
<path d="M21.874 20.9813C21.8387 20.54 21.666 20.1209 21.3801 19.7828C21.0942 19.4448 20.7096 19.2049 20.2802 19.0969C20.2802 19.0804 20.2802 19.0639 20.2802 19.0476C20.2795 18.5183 20.0794 18.0087 19.7198 17.6204C19.3602 17.232 18.8675 16.9933 18.3398 16.9519C18.3229 16.8782 18.3023 16.8068 18.2779 16.7363C18.4828 15.1915 18.5921 13.6354 18.6053 12.0771V11.923C18.6053 7.98137 17.6783 3.51755 17.5887 3.09549V1.18262C17.5887 1.09559 17.5541 1.01213 17.4926 0.950598C17.431 0.889062 17.3476 0.854492 17.2606 0.854492H2.19924C2.15615 0.854468 2.11347 0.862938 2.07365 0.879419C2.03382 0.8959 1.99764 0.920069 1.96717 0.950543C1.93669 0.981017 1.91253 1.0172 1.89604 1.05702C1.87956 1.09684 1.87109 1.13952 1.87112 1.18262V3.09512C1.7813 3.51812 0.854492 7.98155 0.854492 11.923V12.0771C0.854492 16.0186 1.7813 20.482 1.87112 20.9046V22.8171C1.87109 22.8602 1.87956 22.9029 1.89604 22.9427C1.91253 22.9825 1.93669 23.0187 1.96717 23.0492C1.99764 23.0797 2.03382 23.1038 2.07365 23.1203C2.11347 23.1368 2.15615 23.1453 2.19924 23.1452H22.8175C22.8606 23.1453 22.9033 23.1368 22.9431 23.1203C22.9829 23.1038 23.0191 23.0797 23.0496 23.0492C23.08 23.0187 23.1042 22.9825 23.1207 22.9427C23.1372 22.9029 23.1456 22.8602 23.1456 22.8171C23.1475 22.4177 23.0265 22.0273 22.799 21.6989C22.5715 21.3705 22.2486 21.12 21.874 20.9813ZM2.52737 1.51074H16.9324V2.80205H2.52737V1.51074ZM1.51074 11.923C1.51074 8.41993 2.25793 4.4858 2.46699 3.4583H16.9934C17.2015 4.4858 17.9496 8.41993 17.9496 11.923V12.0771C17.9412 13.3365 17.8651 14.5946 17.7218 15.8459C17.4337 15.5634 17.0757 15.3626 16.6844 15.2642C16.2931 15.1658 15.8826 15.1733 15.4952 15.2859C15.1077 15.3985 14.7572 15.6122 14.4796 15.905C14.202 16.1978 14.0073 16.5592 13.9156 16.9521C13.3882 16.9941 12.896 17.2331 12.5369 17.6216C12.1778 18.01 11.978 18.5194 11.9774 19.0484C11.9774 19.0647 11.9774 19.0812 11.9774 19.0977C11.6223 19.1874 11.2965 19.3675 11.0318 19.6205C10.767 19.8736 10.5722 20.1908 10.4665 20.5414H2.46624C2.25793 19.5139 1.50999 15.5798 1.50999 12.0767L1.51074 11.923ZM2.52737 21.1981H9.96531C9.74722 21.346 9.56151 21.5368 9.41945 21.7588C9.2774 21.9808 9.18198 22.2293 9.13899 22.4894H2.52737V21.1981ZM13.4091 22.4894C13.4746 22.3249 13.5879 22.1839 13.7343 22.0845C13.8807 21.985 14.0536 21.9317 14.2306 21.9314C14.3176 21.9314 14.401 21.8968 14.4626 21.8353C14.5241 21.7737 14.5587 21.6903 14.5587 21.6032C14.5587 21.5162 14.5241 21.4328 14.4626 21.3712C14.401 21.3097 14.3176 21.2751 14.2306 21.2751C13.8787 21.2757 13.5376 21.3963 13.2637 21.6171C12.9897 21.8379 12.7994 22.1457 12.7242 22.4894H9.80856C9.86803 22.2576 9.99049 22.0469 10.1624 21.8804C10.3343 21.714 10.5489 21.5984 10.7824 21.5464C10.8577 21.5293 10.9245 21.4863 10.9712 21.4248C11.0179 21.3633 11.0414 21.2873 11.0376 21.2102L11.0354 21.1741C11.0354 21.1621 11.0335 21.1499 11.0335 21.1377C11.0352 20.7752 11.1724 20.4265 11.4182 20.16C11.6639 19.8936 12.0004 19.7287 12.3616 19.6977C12.4073 19.694 12.4518 19.6808 12.4921 19.6588C12.5324 19.6369 12.5677 19.6067 12.5956 19.5703C12.6236 19.5339 12.6436 19.492 12.6543 19.4474C12.665 19.4028 12.6663 19.3564 12.658 19.3112C12.6415 19.2247 12.633 19.1368 12.6327 19.0487C12.6331 18.6653 12.7856 18.2976 13.0568 18.0264C13.3279 17.7553 13.6956 17.6028 14.0791 17.6024C14.1012 17.6024 14.1229 17.6041 14.1447 17.6056L14.173 17.6074C14.258 17.6127 14.3417 17.5848 14.4065 17.5295C14.4712 17.4742 14.512 17.3959 14.5201 17.3112C14.5587 16.9117 14.7447 16.541 15.0418 16.2713C15.3389 16.0015 15.7258 15.8521 16.1271 15.8521C16.5284 15.8521 16.9153 16.0015 17.2124 16.2713C17.5095 16.541 17.6955 16.9117 17.7342 17.3112C17.7422 17.3962 17.783 17.4748 17.848 17.5301C17.9131 17.5854 17.9972 17.6132 18.0824 17.6074L18.1067 17.6057C18.1304 17.6041 18.154 17.6022 18.178 17.6022C18.3904 17.6013 18.6004 17.6474 18.793 17.7372C18.9855 17.827 19.1558 17.9583 19.2916 18.1217C19.4274 18.2851 19.5254 18.4764 19.5786 18.6821C19.6317 18.8878 19.6387 19.1027 19.5991 19.3114C19.5907 19.3566 19.592 19.4029 19.6027 19.4476C19.6134 19.4922 19.6334 19.5341 19.6613 19.5705C19.6892 19.6069 19.7245 19.6371 19.7648 19.659C19.8051 19.681 19.8496 19.6942 19.8953 19.6979C20.2565 19.7288 20.593 19.8938 20.8388 20.1602C21.0845 20.4267 21.2218 20.7754 21.2236 21.1379C21.2236 21.1499 21.2236 21.1615 21.2219 21.1733L21.2194 21.2108C21.2157 21.2879 21.2391 21.3638 21.2858 21.4253C21.3324 21.4868 21.3992 21.5299 21.4744 21.547C21.708 21.5989 21.9226 21.7145 22.0945 21.881C22.2664 22.0474 22.3889 22.2582 22.4483 22.4899L13.4091 22.4894Z" fill="#84BE51"/>
<path d="M21.874 20.9813C21.8387 20.54 21.666 20.1209 21.3801 19.7828C21.0942 19.4448 20.7096 19.2049 20.2802 19.0969C20.2802 19.0804 20.2802 19.0639 20.2802 19.0476C20.2795 18.5183 20.0794 18.0087 19.7198 17.6204C19.3602 17.232 18.8675 16.9933 18.3398 16.9519C18.3229 16.8782 18.3023 16.8068 18.2779 16.7363C18.4828 15.1915 18.5921 13.6354 18.6053 12.0771V11.923C18.6053 7.98137 17.6783 3.51755 17.5887 3.09549V1.18262C17.5887 1.09559 17.5541 1.01213 17.4926 0.950598C17.431 0.889062 17.3476 0.854492 17.2606 0.854492H2.19924C2.15615 0.854468 2.11347 0.862938 2.07365 0.879419C2.03382 0.8959 1.99764 0.920069 1.96717 0.950543C1.93669 0.981017 1.91253 1.0172 1.89604 1.05702C1.87956 1.09684 1.87109 1.13952 1.87112 1.18262V3.09512C1.7813 3.51812 0.854492 7.98155 0.854492 11.923V12.0771C0.854492 16.0186 1.7813 20.482 1.87112 20.9046V22.8171C1.87109 22.8602 1.87956 22.9029 1.89604 22.9427C1.91253 22.9825 1.93669 23.0187 1.96717 23.0492C1.99764 23.0797 2.03382 23.1038 2.07365 23.1203C2.11347 23.1368 2.15615 23.1453 2.19924 23.1452H22.8175C22.8606 23.1453 22.9033 23.1368 22.9431 23.1203C22.9829 23.1038 23.0191 23.0797 23.0496 23.0492C23.08 23.0187 23.1042 22.9825 23.1207 22.9427C23.1372 22.9029 23.1456 22.8602 23.1456 22.8171C23.1475 22.4177 23.0265 22.0273 22.799 21.6989C22.5715 21.3705 22.2486 21.12 21.874 20.9813ZM2.52737 1.51074H16.9324V2.80205H2.52737V1.51074ZM1.51074 11.923C1.51074 8.41993 2.25793 4.4858 2.46699 3.4583H16.9934C17.2015 4.4858 17.9496 8.41993 17.9496 11.923V12.0771C17.9412 13.3365 17.8651 14.5946 17.7218 15.8459C17.4337 15.5634 17.0757 15.3626 16.6844 15.2642C16.2931 15.1658 15.8826 15.1733 15.4952 15.2859C15.1077 15.3985 14.7572 15.6122 14.4796 15.905C14.202 16.1978 14.0073 16.5592 13.9156 16.9521C13.3882 16.9941 12.896 17.2331 12.5369 17.6216C12.1778 18.01 11.978 18.5194 11.9774 19.0484C11.9774 19.0647 11.9774 19.0812 11.9774 19.0977C11.6223 19.1874 11.2965 19.3675 11.0318 19.6205C10.767 19.8736 10.5722 20.1908 10.4665 20.5414H2.46624C2.25793 19.5139 1.50999 15.5798 1.50999 12.0767L1.51074 11.923ZM2.52737 21.1981H9.96531C9.74722 21.346 9.56151 21.5368 9.41945 21.7588C9.2774 21.9808 9.18198 22.2293 9.13899 22.4894H2.52737V21.1981ZM13.4091 22.4894C13.4746 22.3249 13.5879 22.1839 13.7343 22.0845C13.8807 21.985 14.0536 21.9317 14.2306 21.9314C14.3176 21.9314 14.401 21.8968 14.4626 21.8353C14.5241 21.7737 14.5587 21.6903 14.5587 21.6032C14.5587 21.5162 14.5241 21.4328 14.4626 21.3712C14.401 21.3097 14.3176 21.2751 14.2306 21.2751C13.8787 21.2757 13.5376 21.3963 13.2637 21.6171C12.9897 21.8379 12.7994 22.1457 12.7242 22.4894H9.80856C9.86803 22.2576 9.99049 22.0469 10.1624 21.8804C10.3343 21.714 10.5489 21.5984 10.7824 21.5464C10.8577 21.5293 10.9245 21.4863 10.9712 21.4248C11.0179 21.3633 11.0414 21.2873 11.0376 21.2102L11.0354 21.1741C11.0354 21.1621 11.0335 21.1499 11.0335 21.1377C11.0352 20.7752 11.1724 20.4265 11.4182 20.16C11.6639 19.8936 12.0004 19.7287 12.3616 19.6977C12.4073 19.694 12.4518 19.6808 12.4921 19.6588C12.5324 19.6369 12.5677 19.6067 12.5956 19.5703C12.6236 19.5339 12.6436 19.492 12.6543 19.4474C12.665 19.4028 12.6663 19.3564 12.658 19.3112C12.6415 19.2247 12.633 19.1368 12.6327 19.0487C12.6331 18.6653 12.7856 18.2976 13.0568 18.0264C13.3279 17.7553 13.6956 17.6028 14.0791 17.6024C14.1012 17.6024 14.1229 17.6041 14.1447 17.6056L14.173 17.6074C14.258 17.6127 14.3417 17.5848 14.4065 17.5295C14.4712 17.4742 14.512 17.3959 14.5201 17.3112C14.5587 16.9117 14.7447 16.541 15.0418 16.2713C15.3389 16.0015 15.7258 15.8521 16.1271 15.8521C16.5284 15.8521 16.9153 16.0015 17.2124 16.2713C17.5095 16.541 17.6955 16.9117 17.7342 17.3112C17.7422 17.3962 17.783 17.4748 17.848 17.5301C17.9131 17.5854 17.9972 17.6132 18.0824 17.6074L18.1067 17.6057C18.1304 17.6041 18.154 17.6022 18.178 17.6022C18.3904 17.6013 18.6004 17.6474 18.793 17.7372C18.9855 17.827 19.1558 17.9583 19.2916 18.1217C19.4274 18.2851 19.5254 18.4764 19.5786 18.6821C19.6317 18.8878 19.6387 19.1027 19.5991 19.3114C19.5907 19.3566 19.592 19.4029 19.6027 19.4476C19.6134 19.4922 19.6334 19.5341 19.6613 19.5705C19.6892 19.6069 19.7245 19.6371 19.7648 19.659C19.8051 19.681 19.8496 19.6942 19.8953 19.6979C20.2565 19.7288 20.593 19.8938 20.8388 20.1602C21.0845 20.4267 21.2218 20.7754 21.2236 21.1379C21.2236 21.1499 21.2236 21.1615 21.2219 21.1733L21.2194 21.2108C21.2157 21.2879 21.2391 21.3638 21.2858 21.4253C21.3324 21.4868 21.3992 21.5299 21.4744 21.547C21.708 21.5989 21.9226 21.7145 22.0945 21.881C22.2664 22.0474 22.3889 22.2582 22.4483 22.4899L13.4091 22.4894Z" stroke="#84BE51" stroke-width="0.4" mask="url(#path-5-outside-1_91_3218)"/>
<path d="M3.83398 5.14395H6.56267C6.67622 5.14395 6.78511 5.09884 6.8654 5.01855C6.94569 4.93826 6.9908 4.82937 6.9908 4.71582C6.9908 4.60227 6.94569 4.49338 6.8654 4.41309C6.78511 4.3328 6.67622 4.2877 6.56267 4.2877H3.83398C3.72044 4.2877 3.61154 4.3328 3.53125 4.41309C3.45096 4.49338 3.40586 4.60227 3.40586 4.71582C3.40586 4.82937 3.45096 4.93826 3.53125 5.01855C3.61154 5.09884 3.72044 5.14395 3.83398 5.14395Z" fill="#84BE51" stroke="#84BE51" stroke-width="0.2"/>
<path d="M7.87891 5.1437H8.62497C8.73851 5.1437 8.84741 5.0986 8.9277 5.01831C9.00799 4.93802 9.05309 4.82912 9.05309 4.71558C9.05309 4.60203 9.00799 4.49314 8.9277 4.41285C8.84741 4.33256 8.73851 4.28745 8.62497 4.28745H7.87891C7.76536 4.28745 7.65646 4.33256 7.57618 4.41285C7.49589 4.49314 7.45078 4.60203 7.45078 4.71558C7.45078 4.82912 7.49589 4.93802 7.57618 5.01831C7.65647 5.0986 7.76536 5.1437 7.87891 5.1437Z" fill="#84BE51" stroke="#84BE51" stroke-width="0.2"/>
</svg>
