<svg width="16" height="16" viewBox="0 0 16 16" fill="none" xmlns="http://www.w3.org/2000/svg">
<path d="M12.1974 14.5454L10.0039 10.6763C9.98716 10.6514 9.97573 10.6233 9.97034 10.5938C9.96495 10.5643 9.96572 10.5339 9.97258 10.5047C9.97945 10.4755 9.99227 10.448 10.0102 10.424C10.0282 10.3999 10.051 10.3798 10.077 10.365C10.1031 10.3501 10.132 10.3408 10.1618 10.3377C10.1917 10.3345 10.2219 10.3375 10.2505 10.3465C10.2791 10.3555 10.3056 10.3703 10.3282 10.3901C10.3509 10.4098 10.3692 10.4339 10.3821 10.461L12.5755 14.3301L12.1974 14.5454Z" fill="#8C3213"/>
<path d="M7.1677 5.45443C7.12929 5.45402 7.09166 5.4436 7.0585 5.42422C7.02535 5.40484 6.99781 5.37715 6.97861 5.34389L4.78516 1.4777L5.16334 1.25952L7.35679 5.12861C7.38412 5.17809 7.3909 5.23633 7.37566 5.29075C7.36042 5.34518 7.32439 5.39143 7.27534 5.41952C7.24278 5.43962 7.20586 5.4516 7.1677 5.45443V5.45443Z" fill="#8C3213"/>
<path d="M10.0542 15.1972C9.73207 15.2027 9.41049 15.1676 9.09714 15.0925C5.96987 14.2285 1.86223 6.98194 2.72623 3.85758C3.11949 2.75053 3.8736 1.80789 4.86732 1.18121C5.05933 1.06776 5.25423 0.96594 5.44914 0.872849C5.62802 0.791409 5.83093 0.779991 6.01782 0.840849C6.2047 0.901708 6.36198 1.03042 6.4586 1.20158L8.10223 4.11067C8.1568 4.20597 8.1907 4.31168 8.20173 4.42095C8.21276 4.53021 8.20066 4.64057 8.16623 4.74485C8.13116 4.84936 8.07479 4.94547 8.00068 5.02708C7.92658 5.1087 7.83634 5.17406 7.73569 5.21903C7.57569 5.28885 7.4186 5.36158 7.26732 5.44012C6.60696 5.77176 6.22878 6.07139 6.14151 6.33321C5.94078 6.95576 6.17933 8.00885 6.74951 9.01539C7.31969 10.0219 8.08769 10.7608 8.7306 10.8976C8.91969 10.9412 9.31242 10.8976 10.0746 10.3943C10.2201 10.3041 10.3655 10.2052 10.5081 10.1034C10.5976 10.0399 10.6995 9.99585 10.8072 9.97416C10.9148 9.95246 11.0258 9.95357 11.133 9.97742C11.2401 10.0013 11.3411 10.0473 11.4294 10.1126C11.5177 10.1779 11.5913 10.261 11.6455 10.3565L13.2921 13.2656C13.3904 13.4366 13.4208 13.6384 13.3771 13.8309C13.3335 14.0233 13.219 14.1923 13.0564 14.3041C12.879 14.4205 12.6899 14.5368 12.4921 14.6445C11.736 15.0228 10.8995 15.2125 10.0542 15.1972V15.1972ZM5.77205 1.23358C5.7238 1.23447 5.67625 1.24537 5.63242 1.26558C5.45205 1.34994 5.26878 1.44885 5.08842 1.55649C4.19295 2.12595 3.51001 2.97453 3.14514 3.97103C2.7786 5.30048 3.42151 7.71212 4.78296 10.1121C6.14442 12.5121 7.88405 14.3041 9.21351 14.6736C10.2548 14.8734 11.3329 14.7263 12.2826 14.2547C12.4688 14.1528 12.6462 14.0452 12.8121 13.9347C12.8833 13.8846 12.9333 13.8096 12.9521 13.7246C12.9709 13.6395 12.9573 13.5505 12.9139 13.475L11.2673 10.5659C11.2432 10.5237 11.2106 10.4868 11.1716 10.4578C11.1325 10.4287 11.0878 10.4081 11.0404 10.3972C10.9906 10.3857 10.9389 10.385 10.8887 10.395C10.8385 10.405 10.7911 10.4256 10.7495 10.4554C10.6011 10.5601 10.4586 10.6619 10.3015 10.7463C9.5626 11.2234 9.03023 11.4008 8.62587 11.3107C7.85496 11.1361 7.00842 10.3536 6.3626 9.21612C5.85933 8.34339 5.42878 7.07503 5.71969 6.18485C5.84478 5.79794 6.27242 5.43139 7.06078 5.02121C7.21787 4.93976 7.38369 4.86412 7.54951 4.79139C7.59485 4.7713 7.63556 4.74207 7.66909 4.70553C7.70263 4.66899 7.72827 4.62592 7.74442 4.57903C7.76051 4.53126 7.76623 4.4806 7.76122 4.43044C7.7562 4.38028 7.74056 4.33176 7.71533 4.28812L6.06878 1.37903C6.03468 1.33289 5.98982 1.29578 5.93811 1.27093C5.88639 1.24609 5.82938 1.23426 5.77205 1.23649V1.23358Z" fill="#8C3213"/>
</svg>
