<svg width="41" height="41" viewBox="0 0 41 41" fill="none" xmlns="http://www.w3.org/2000/svg">
<g clip-path="url(#clip0_8428_7237)">
<path d="M27.9331 22.7674L25.2374 18.2743L27.6566 17.6023C27.9061 17.533 28.0521 17.2746 27.9828 17.0252C27.9135 16.7757 27.6551 16.6297 27.4057 16.699L24.3985 17.5343C24.3983 17.5344 24.3981 17.5344 24.3978 17.5345L20.4688 18.6259V13.4689C20.4688 13.21 20.2589 13.0002 20 13.0002C19.7411 13.0002 19.5313 13.21 19.5313 13.4689V18.8863L15.3612 20.0446C15.361 20.0447 15.3607 20.0447 15.3605 20.0447L12.3434 20.8828C12.094 20.9521 11.948 21.2105 12.0172 21.4599C12.0749 21.6674 12.2633 21.8033 12.4686 21.8033C12.5101 21.8033 12.5524 21.7977 12.5943 21.7861L14.4751 21.2637L12.067 25.2777C12.0233 25.3505 12.0002 25.4339 12.0002 25.5188C12.0002 27.4383 13.5618 28.9999 15.4813 28.9999C17.4009 28.9999 18.9625 27.4383 18.9625 25.5188C18.9625 25.4339 18.9394 25.3505 18.8957 25.2777L16.2 20.7846L23.5124 18.7534L21.1043 22.7674C21.0606 22.8402 21.0375 22.9236 21.0375 23.0085C21.0375 24.928 22.5991 26.4896 24.5186 26.4896C25.4485 26.4896 26.3227 26.1275 26.9802 25.47C27.6378 24.8125 27.9999 23.9383 27.9998 23.0085C27.9999 22.9236 27.9768 22.8402 27.9331 22.7674ZM15.4813 28.0624C14.2389 28.0624 13.2022 27.1669 12.9815 25.9876H17.9812C17.7605 27.1669 16.7238 28.0624 15.4813 28.0624ZM17.666 25.0501H13.2968L15.4813 21.4088L17.666 25.0501ZM24.5186 18.8985L26.7033 22.5397H22.3341L24.5186 18.8985ZM24.5187 25.5522C23.2763 25.5522 22.2395 24.6566 22.0188 23.4773H27.0186C26.7979 24.6566 25.7611 25.5522 24.5187 25.5522Z" fill="#8C3213"/>
</g>
<circle cx="20" cy="21" r="19.5" stroke="#8C3213"/>
<circle cx="34" cy="7" r="7" fill="#84BE51"/>
<path d="M34.6534 4V11H33.9334V4.64H32.2834V4H34.6534Z" fill="white"/>
<defs>
<clipPath id="clip0_8428_7237">
<rect width="16" height="16" fill="white" transform="translate(12 13)"/>
</clipPath>
</defs>
</svg>
