<svg width="24" height="24" viewBox="0 0 24 24" fill="none" xmlns="http://www.w3.org/2000/svg">
<g clip-path="url(#clip0_91_3241)">
<path d="M18.9999 20.35V17C20.0813 16.9011 21.1093 16.4843 21.9542 15.8021C22.7991 15.12 23.4231 14.203 23.7477 13.1667C24.0723 12.1304 24.0828 11.0213 23.778 9.97902C23.4732 8.93676 22.8667 8.00805 22.0349 7.30995C22.5577 6.64634 22.883 5.84899 22.9738 5.00912C23.0647 4.16925 22.9172 3.32077 22.5484 2.56077C22.1796 1.80076 21.6043 1.15992 20.8883 0.711547C20.1724 0.263177 19.3447 0.0253906 18.4999 0.0253906C17.6552 0.0253906 16.8274 0.263177 16.1115 0.711547C15.3955 1.15992 14.8202 1.80076 14.4514 2.56077C14.0826 3.32077 13.9352 4.16925 14.026 5.00912C14.1168 5.84899 14.4422 6.64634 14.9649 7.30995C14.1331 8.00805 13.5266 8.93676 13.2218 9.97902C12.917 11.0213 12.9276 12.1304 13.2521 13.1667C13.5767 14.203 14.2008 15.12 15.0457 15.8021C15.8906 16.4843 16.9185 16.9011 17.9999 17V20C14.1039 18.7101 9.89593 18.7101 5.99992 20V17C7.08132 16.9011 8.10925 16.4843 8.95416 15.8021C9.79906 15.12 10.4231 14.203 10.7477 13.1667C11.0723 12.1304 11.0828 11.0213 10.778 9.97902C10.4732 8.93676 9.8667 8.00805 9.03492 7.30995C9.47824 6.74712 9.78077 6.08658 9.91734 5.38326C10.0539 4.67994 10.0206 3.95417 9.8201 3.26633C9.61962 2.5785 9.25781 1.94847 8.76476 1.42865C8.2717 0.908837 7.66166 0.514262 6.98536 0.277749C6.30907 0.0412362 5.58608 -0.0303789 4.87653 0.068861C4.16698 0.168101 3.49138 0.435327 2.90593 0.848312C2.32048 1.2613 1.8421 1.8081 1.51058 2.44324C1.17906 3.07839 1.00399 3.78351 0.99992 4.49995C0.997074 5.51075 1.33729 6.49261 1.96492 7.28495C1.12459 7.9811 0.510325 8.91149 0.200289 9.95775C-0.109748 11.004 -0.101547 12.1189 0.223849 13.1604C0.549244 14.202 1.17713 15.1233 2.02761 15.807C2.8781 16.4907 3.91274 16.906 4.99992 17V20.35C3.27241 21.0321 1.65238 21.96 0.18992 23.1049C0.107336 23.169 0.0469141 23.2574 0.0171519 23.3576C-0.0126104 23.4578 -0.0102165 23.5648 0.0239968 23.6636C0.0582101 23.7624 0.122522 23.848 0.20789 23.9083C0.293258 23.9686 0.395388 24.0007 0.49992 24H23.4999C23.6045 24.0007 23.7066 23.9686 23.792 23.9083C23.8773 23.848 23.9416 23.7624 23.9758 23.6636C24.0101 23.5648 24.0125 23.4578 23.9827 23.3576C23.9529 23.2574 23.8925 23.169 23.8099 23.1049C22.3475 21.96 20.7274 21.0321 18.9999 20.35ZM13.9999 11.5C14.0018 10.7619 14.1853 10.0356 14.534 9.38515C14.8828 8.73468 15.3862 8.17999 15.9999 7.76995C16.0597 7.72683 16.1093 7.671 16.145 7.60648C16.1807 7.54196 16.2017 7.47033 16.2065 7.39674C16.2113 7.32315 16.1997 7.24941 16.1726 7.18081C16.1456 7.11221 16.1037 7.05045 16.0499 6.99995C15.5534 6.5133 15.2131 5.88982 15.0724 5.20899C14.9317 4.52817 14.9969 3.82086 15.2597 3.17724C15.5225 2.53363 15.9711 1.98286 16.5482 1.59518C17.1252 1.20749 17.8047 1.00045 18.4999 1.00045C19.1951 1.00045 19.8746 1.20749 20.4517 1.59518C21.0288 1.98286 21.4773 2.53363 21.7402 3.17724C22.003 3.82086 22.0682 4.52817 21.9275 5.20899C21.7867 5.88982 21.4464 6.5133 20.9499 6.99995C20.8962 7.05045 20.8543 7.11221 20.8272 7.18081C20.8001 7.24941 20.7886 7.32315 20.7933 7.39674C20.7981 7.47033 20.8191 7.54196 20.8548 7.60648C20.8906 7.671 20.9401 7.72683 20.9999 7.76995C21.6468 8.20214 22.1705 8.79462 22.52 9.4896C22.8696 10.1846 23.033 10.9583 22.9943 11.7353C22.9557 12.5122 22.7162 13.2659 22.2994 13.9227C21.8826 14.5796 21.3026 15.1171 20.6161 15.483C19.9295 15.8488 19.1599 16.0304 18.3822 16.0101C17.6046 15.9897 16.8454 15.7681 16.179 15.3669C15.5125 14.9657 14.9614 14.3985 14.5795 13.7208C14.1976 13.043 13.9979 12.2779 13.9999 11.5ZM0.99992 11.5C1.00183 10.7619 1.18526 10.0356 1.53404 9.38515C1.88281 8.73468 2.38623 8.17999 2.99992 7.76995C3.05975 7.72683 3.10929 7.671 3.145 7.60648C3.18072 7.54196 3.20172 7.47033 3.2065 7.39674C3.21128 7.32315 3.19972 7.24941 3.17265 7.18081C3.14558 7.11221 3.10367 7.05045 3.04992 6.99995C2.55344 6.5133 2.21313 5.88982 2.07239 5.20899C1.93165 4.52817 1.99685 3.82086 2.25969 3.17724C2.52252 2.53363 2.97107 1.98286 3.54815 1.59518C4.12524 1.20749 4.8047 1.00045 5.49992 1.00045C6.19514 1.00045 6.8746 1.20749 7.45169 1.59518C8.02877 1.98286 8.47732 2.53363 8.74016 3.17724C9.00299 3.82086 9.06819 4.52817 8.92745 5.20899C8.78671 5.88982 8.4464 6.5133 7.94992 6.99995C7.89617 7.05045 7.85426 7.11221 7.82719 7.18081C7.80012 7.24941 7.78857 7.32315 7.79334 7.39674C7.79812 7.47033 7.81912 7.54196 7.85484 7.60648C7.89055 7.671 7.9401 7.72683 7.99992 7.76995C8.64675 8.20214 9.1705 8.79462 9.52005 9.4896C9.86959 10.1846 10.033 10.9583 9.99434 11.7353C9.95568 12.5122 9.71625 13.2659 9.29943 13.9227C8.88261 14.5796 8.30262 15.1171 7.61608 15.483C6.92954 15.8488 6.15988 16.0304 5.38222 16.0101C4.60455 15.9897 3.84544 15.7681 3.17897 15.3669C2.51249 14.9657 1.96141 14.3985 1.5795 13.7208C1.1976 13.043 0.997907 12.2779 0.99992 11.5ZM2.05492 23C5.00891 21.0575 8.46699 20.0224 12.0024 20.0224C15.5379 20.0224 18.9959 21.0575 21.9499 23H2.05492Z" fill="#84BE51"/>
<path d="M5.14509 7.35509C5.19157 7.40196 5.24687 7.43915 5.3078 7.46454C5.36873 7.48992 5.43409 7.50299 5.50009 7.50299C5.5661 7.50299 5.63145 7.48992 5.69238 7.46454C5.75331 7.43915 5.80861 7.40196 5.85509 7.35509L7.35509 5.85509C7.44924 5.76094 7.50214 5.63324 7.50214 5.50009C7.50214 5.36694 7.44924 5.23924 7.35509 5.14509C7.26094 5.05094 7.13324 4.99805 7.00009 4.99805C6.86694 4.99805 6.73924 5.05094 6.64509 5.14509L5.50009 6.29509L4.35509 5.14509C4.26094 5.05094 4.13324 4.99805 4.00009 4.99805C3.86694 4.99805 3.73924 5.05094 3.64509 5.14509C3.55094 5.23924 3.49805 5.36694 3.49805 5.50009C3.49805 5.63324 3.55094 5.76094 3.64509 5.85509L5.14509 7.35509Z" fill="#84BE51"/>
<path d="M5.14509 10.8551C5.19157 10.902 5.24687 10.9392 5.3078 10.9645C5.36873 10.9899 5.43409 11.003 5.50009 11.003C5.5661 11.003 5.63145 10.9899 5.69238 10.9645C5.75331 10.9392 5.80861 10.902 5.85509 10.8551L7.35509 9.35509C7.40171 9.30847 7.43869 9.25313 7.46392 9.19222C7.48915 9.13131 7.50214 9.06602 7.50214 9.00009C7.50214 8.93416 7.48915 8.86888 7.46392 8.80797C7.43869 8.74706 7.40171 8.69171 7.35509 8.64509C7.30847 8.59847 7.25313 8.56149 7.19222 8.53626C7.13131 8.51103 7.06602 8.49805 7.00009 8.49805C6.93416 8.49805 6.86888 8.51103 6.80797 8.53626C6.74706 8.56149 6.69171 8.59847 6.64509 8.64509L5.50009 9.79509L4.35509 8.64509C4.30847 8.59847 4.25313 8.56149 4.19222 8.53626C4.13131 8.51103 4.06602 8.49805 4.00009 8.49805C3.93416 8.49805 3.86888 8.51103 3.80797 8.53626C3.74706 8.56149 3.69171 8.59847 3.64509 8.64509C3.59847 8.69171 3.56149 8.74706 3.53626 8.80797C3.51103 8.86888 3.49805 8.93416 3.49805 9.00009C3.49805 9.06602 3.51103 9.13131 3.53626 9.19222C3.56149 9.25313 3.59847 9.30847 3.64509 9.35509L5.14509 10.8551Z" fill="#84BE51"/>
<path d="M5.85509 14.3551L7.35509 12.8551C7.44924 12.7609 7.50214 12.6332 7.50214 12.5001C7.50214 12.3669 7.44924 12.2392 7.35509 12.1451C7.26094 12.0509 7.13324 11.998 7.00009 11.998C6.86694 11.998 6.73924 12.0509 6.64509 12.1451L5.50009 13.2951L4.35509 12.1451C4.30847 12.0985 4.25313 12.0615 4.19222 12.0363C4.13131 12.011 4.06602 11.998 4.00009 11.998C3.93416 11.998 3.86888 12.011 3.80797 12.0363C3.74706 12.0615 3.69171 12.0985 3.64509 12.1451C3.59847 12.1917 3.56149 12.2471 3.53626 12.308C3.51103 12.3689 3.49805 12.4342 3.49805 12.5001C3.49805 12.566 3.51103 12.6313 3.53626 12.6922C3.56149 12.7531 3.59847 12.8085 3.64509 12.8551L5.14509 14.3551C5.19157 14.402 5.24687 14.4392 5.3078 14.4645C5.36873 14.4899 5.43409 14.503 5.50009 14.503C5.5661 14.503 5.63145 14.4899 5.69238 14.4645C5.75331 14.4392 5.80861 14.402 5.85509 14.3551Z" fill="#84BE51"/>
<path d="M18.1451 7.35509C18.1916 7.40196 18.2469 7.43915 18.3078 7.46454C18.3687 7.48992 18.4341 7.50299 18.5001 7.50299C18.5661 7.50299 18.6315 7.48992 18.6924 7.46454C18.7533 7.43915 18.8086 7.40196 18.8551 7.35509L20.3551 5.85509C20.4492 5.76094 20.5021 5.63324 20.5021 5.50009C20.5021 5.36694 20.4492 5.23924 20.3551 5.14509C20.2609 5.05094 20.1332 4.99805 20.0001 4.99805C19.8669 4.99805 19.7392 5.05094 19.6451 5.14509L18.5001 6.29509L17.3551 5.14509C17.2609 5.05094 17.1332 4.99805 17.0001 4.99805C16.8669 4.99805 16.7392 5.05094 16.6451 5.14509C16.5509 5.23924 16.498 5.36694 16.498 5.50009C16.498 5.63324 16.5509 5.76094 16.6451 5.85509L18.1451 7.35509Z" fill="#84BE51"/>
<path d="M18.1451 10.8551C18.1916 10.902 18.2469 10.9392 18.3078 10.9645C18.3687 10.9899 18.4341 11.003 18.5001 11.003C18.5661 11.003 18.6315 10.9899 18.6924 10.9645C18.7533 10.9392 18.8086 10.902 18.8551 10.8551L20.3551 9.35509C20.4492 9.26094 20.5021 9.13324 20.5021 9.00009C20.5021 8.86694 20.4492 8.73924 20.3551 8.64509C20.2609 8.55094 20.1332 8.49805 20.0001 8.49805C19.8669 8.49805 19.7392 8.55094 19.6451 8.64509L18.5001 9.79509L17.3551 8.64509C17.2609 8.55094 17.1332 8.49805 17.0001 8.49805C16.8669 8.49805 16.7392 8.55094 16.6451 8.64509C16.5509 8.73924 16.498 8.86694 16.498 9.00009C16.498 9.13324 16.5509 9.26094 16.6451 9.35509L18.1451 10.8551Z" fill="#84BE51"/>
<path d="M18.8551 14.3551L20.3551 12.8551C20.4492 12.7609 20.5021 12.6332 20.5021 12.5001C20.5021 12.3669 20.4492 12.2392 20.3551 12.1451C20.2609 12.0509 20.1332 11.998 20.0001 11.998C19.8669 11.998 19.7392 12.0509 19.6451 12.1451L18.5001 13.2951L17.3551 12.1451C17.2609 12.0509 17.1332 11.998 17.0001 11.998C16.8669 11.998 16.7392 12.0509 16.6451 12.1451C16.5509 12.2392 16.498 12.3669 16.498 12.5001C16.498 12.6332 16.5509 12.7609 16.6451 12.8551L18.1451 14.3551C18.1916 14.402 18.2469 14.4392 18.3078 14.4645C18.3687 14.4899 18.4341 14.503 18.5001 14.503C18.5661 14.503 18.6315 14.4899 18.6924 14.4645C18.7533 14.4392 18.8086 14.402 18.8551 14.3551Z" fill="#84BE51"/>
</g>
<defs>
<clipPath id="clip0_91_3241">
<rect width="24" height="24" fill="white"/>
</clipPath>
</defs>
</svg>
